<?xml version="1.0" standalone="no"?>
<!DOCTYPE svg PUBLIC "-//W3C//DTD SVG 20010904//EN"
 "http://www.w3.org/TR/2001/REC-SVG-20010904/DTD/svg10.dtd">
<svg version="1.0" xmlns="http://www.w3.org/2000/svg"
 width="500.000000pt" height="500.000000pt" viewBox="0 0 500.000000 500.000000"
 preserveAspectRatio="xMidYMid meet">

<g transform="translate(0.000000,500.000000) scale(0.100000,-0.100000)"
fill="#000000" stroke="none">
<path d="M974 2839 c-75 -29 -137 -98 -163 -184 -61 -198 31 -398 203 -439 44
-11 149 -9 194 3 60 17 118 65 147 121 14 27 25 58 25 70 0 18 -6 20 -79 20
-78 0 -79 0 -91 -30 -36 -87 -186 -77 -234 16 -40 76 -31 209 18 262 64 71
185 66 216 -9 12 -29 14 -29 91 -29 73 0 79 2 79 20 0 35 -48 117 -84 145 -74
57 -223 72 -322 34z"/>
<path d="M3500 2535 l0 -315 75 0 75 0 0 315 0 315 -75 0 -75 0 0 -315z"/>
<path d="M3780 2770 l0 -80 -30 0 c-30 0 -30 -1 -30 -55 0 -54 0 -55 30 -55
l30 0 0 -127 c0 -208 16 -233 150 -233 l70 0 0 55 c0 54 -1 55 -28 55 -47 0
-52 14 -52 137 l0 113 40 0 40 0 0 55 0 55 -40 0 -40 0 0 80 0 80 -70 0 -70 0
0 -80z"/>
<path d="M1660 2693 c-8 -3 -27 -15 -42 -25 -28 -19 -28 -19 -28 1 0 19 -6 21
-70 21 l-70 0 0 -235 0 -235 70 0 70 0 0 113 c0 175 23 227 100 227 l40 0 0
70 c0 70 0 70 -27 69 -16 0 -35 -3 -43 -6z"/>
<path d="M1921 2685 c-51 -16 -98 -57 -117 -102 -22 -51 -19 -53 56 -53 40 0
70 4 70 10 0 20 41 50 69 50 29 0 61 -29 61 -55 0 -6 -42 -19 -94 -29 -51 -10
-108 -26 -125 -37 -96 -58 -91 -189 10 -242 47 -25 138 -19 179 11 30 22 30
22 30 2 0 -18 6 -20 70 -20 l70 0 0 158 c0 180 -9 224 -55 268 -54 50 -140 65
-224 39z m139 -290 c0 -40 -42 -75 -88 -75 -69 0 -83 59 -19 79 88 27 107 26
107 -4z"/>
<path d="M2887 2684 c-156 -50 -209 -276 -93 -402 52 -58 168 -86 254 -63 63
18 152 105 152 151 0 6 -26 10 -65 10 -56 0 -67 -3 -90 -26 -23 -23 -33 -26
-72 -21 -47 5 -76 26 -88 65 l-6 22 165 0 166 0 0 44 c0 57 -24 124 -58 159
-62 66 -172 91 -265 61z m158 -119 c14 -13 25 -29 25 -35 0 -6 -34 -10 -90
-10 -65 0 -90 3 -90 13 1 55 110 78 155 32z"/>
<path d="M2250 2683 c0 -4 37 -110 82 -235 l83 -228 56 0 57 0 82 223 c46 122
85 228 87 235 4 9 -14 12 -69 12 l-75 0 -39 -124 c-21 -69 -41 -122 -44 -120
-3 3 -21 58 -41 122 l-35 117 -72 3 c-40 2 -72 -1 -72 -5z"/>
</g>
</svg>
