<svg xmlns="http://www.w3.org/2000/svg" xml:space="preserve" width="2000" height="1500" data-id="lg_SjS8CTIOHamLoEG4RJ" data-version="1" viewBox="0 0 2000 1500"><path fill="#ffda1f" stroke="transparent" d="M0 0h2000v1500H0z"/><g data-padding="20"><g transform="translate(-1661.29 -1257.506)scale(2.59182)"><rect width="511.941" height="163.85" x="428.665" y="545.959" fill="none" rx="0" ry="0" transform="translate(280.55 90.16)scale(1.09)"/><path fill="#736c1a" d="M832.012 798.124q0 5.65-2.13 10.61t-5.84 8.67q-3.72 3.72-8.68 5.85-4.95 2.13-10.61 2.13h-7.9q-5.65 0-10.65-2.13-4.99-2.13-8.71-5.85-3.72-3.71-5.85-8.67t-2.13-10.61v-59.63q0-5.66 2.13-10.61 2.13-4.96 5.85-8.68t8.71-5.85q5-2.13 10.65-2.13h7.9q5.66 0 10.61 2.13 4.96 2.13 8.68 5.85 3.71 3.72 5.84 8.68 2.13 4.95 2.13 10.61v4.49l-9.99 1.55v-6.04q0-3.72-1.39-6.94-1.39-3.21-3.8-5.61-2.4-2.4-5.61-3.8-3.21-1.39-6.93-1.39h-6.97q-3.72 0-6.93 1.39-3.22 1.4-5.66 3.8t-3.83 5.61q-1.4 3.22-1.4 6.94v59.63q0 3.72 1.4 6.93 1.39 3.22 3.83 5.65 2.44 2.44 5.66 3.84 3.21 1.39 6.93 1.39h6.97q3.72 0 6.93-1.39 3.21-1.4 5.61-3.84 2.41-2.43 3.8-5.65 1.39-3.21 1.39-6.93v-6.04l9.99 1.63Zm85.97 25.71h-11.54l-30.13-47.4h-13.7v47.4h-9.99v-111.06h35.23q5.66 0 10.61 2.13 4.96 2.13 8.68 5.85t5.85 8.71q2.13 5 2.13 10.65v8.99q0 5.65-2.13 10.64-2.13 5-5.85 8.72-3.72 3.71-8.68 5.84-4.95 2.13-10.61 2.13Zm-12.86-74.73v-8.99q0-3.72-1.39-6.93t-3.79-5.65q-2.41-2.44-5.62-3.84-3.21-1.39-6.93-1.39h-24.78v44.61h24.78q3.72 0 6.93-1.4 3.21-1.39 5.62-3.83 2.4-2.44 3.79-5.65 1.39-3.22 1.39-6.93m80.94 74.73-7.36-25.87h-35.16l-7.28 25.87h-10.38l32.53-111.06h5.26l32.69 111.06Zm-25.25-86.58-14.56 51.19h29.82l-14.64-51.19-.31-4.11Zm49.03-24.48 24.55 86.67.31 4.1.31-4.1 24.63-86.67h10.3l-32.68 111.06h-5.27l-32.52-111.06Zm136.84 111.06h-62.5v-111.06h62.5v9.53h-52.51v41.28h42.52v9.52h-42.52v41.21h52.51Zm65.53 0h-9.99v-111.06h9.99Zm78.83-101.53h-26.48v101.53h-9.99v-101.53h-26.49v-9.53h62.96Z"/></g><path fill="transparent" stroke="transparent" stroke-width="2.688" d="M250 509.409h1500V990.59H250z"/></g></svg>